<?xml version="1.0" encoding="utf-8"?>
<!-- Generator: Adobe Illustrator 23.0.1, SVG Export Plug-In . SVG Version: 6.00 Build 0)  -->
<svg version="1.1" id="Layer_1" xmlns="http://www.w3.org/2000/svg" xmlns:xlink="http://www.w3.org/1999/xlink" x="0px" y="0px"
	 viewBox="0 0 560 288" style="enable-background:new 0 0 560 288;" xml:space="preserve">
<style type="text/css">
	.st0{fill:none;stroke:#FFFFFF;stroke-width:2;stroke-miterlimit:10;}
	.st1{fill:#FFFFFF;stroke:#FFFFFF;stroke-miterlimit:10;}
	.st2{fill:none;stroke:#FFFFFF;stroke-miterlimit:10;}
</style>
<path class="st0" d="M9.16,198.8c19.38-2.94,35.08-3.52,45.46-3.54c13.06-0.03,19.72,0.8,72.61,5.31
	c17.92,1.53,26.91,2.29,28.93,2.36c23.54,0.79,34.99-1.65,69.07-4.72c26.52-2.39,21.64-1.1,49-3.54c29.14-2.6,37.01-4.27,64.35-7.08
	c25.09-2.58,32.14-2.58,68.48-5.31c20.74-1.56,51.07-4.01,88.55-7.67"/>
<path class="st0" d="M7.39,234.81c30.09-0.51,70.68-1.62,118.66-4.13c67.34-3.53,118.27-8.23,162.93-12.4
	c78.92-7.37,119.25-12.97,207.21-18.89c11.63-0.78,21.25-1.38,27.75-1.77"/>
<path class="st0" d="M74.1,162.72c32.61,4.62,56.19,3.87,61.39,3.54c14.71-0.94,21.9-1.55,25.71-1.92
	c25.86-2.48,34.4-2.31,49.85-3.99c32.85-3.57,33.6-6.75,64.35-9.45c10.85-0.95,25.78-0.9,56.67-0.59
	c17.22,0.17,34.67,0.53,75.56,1.18c12.48,0.2,35.22,0.43,63.76-5.31c8.53-1.72,20.19-4.12,20.07-6.49
	c-0.21-4.14-36.01-5.53-60.8-6.49c-13.09-0.51-29.9-1.13-53.13-0.59c-6.52,0.15-12.79,0.38-63.17,3.54
	c-35.07,2.2-35.13,2.29-47.23,2.95c-29.8,1.64-44.7,2.45-63.17,2.36c-9.41-0.05-28.01-0.3-51.07-0.07c0,0-58.55-0.19-83.52,9.51
	c-1.49,0.58-3.38,3.57-4.87,7.04c-0.32,0.74-0.57,1.73-0.31,2.39C64.27,160.55,66,161.58,74.1,162.72z"/>
<path class="st1" d="M226.86,164.4c0.16-1.85,4.45-5.03,14.31-5.84c9.81-0.81,15.33-0.43,20.6,0.02c1.44,0.12,5.25,2.06,12.93,5.5
	c7.18,3.21,7.95,3.74,10.67,4.53c3.09,0.89,13.41,1.79,15.19,0c2.52-2.53,3.19-3.99,1.87-9.99c-0.5-2.27-0.09-3.83,1.04-4.23
	c3.08-1.08,12.2-1.82,18.97-1.53c13,0.56,10.75,0.15,30.48,1.85c5.72,0.49,34.05,2.93,34.59,9.37c0.11,1.35-0.79,2.76-2.26,3.56
	c-5.93,3.19-14.55,3.67-33.29,3.88c-6.29,0.07-11.15,0.14-17.78,0.97c-8.26,1.03-11.43,2.27-18.75,3.56
	c-11.88,2.1-17.04,1.85-24.24,1.94c-17.85,0.23-31.93-2.34-40.08-4.2C246.69,172.77,226.53,168.16,226.86,164.4z"/>
<path class="st1" d="M203.59,133.41c0-2.21,6.4-3.09,27.12-8.53c13.21-3.47,17.23-4.85,25.6-5.88c5.62-0.69,9.08-0.71,15.74-0.76
	c9.94-0.07,12.52,0.7,14.6,1.71c4.41,2.14,3.58,3.88,8.35,6.07c5.78,2.66,10.79,2.4,11.57,4.17c0.37,0.83-0.37,1.83-0.76,2.09
	c-6.66,4.31-33.49,5.18-62.4,6.26c-4.68,0.17-14.56-0.01-29.21-0.19C210.24,138.29,203.59,135.85,203.59,133.41z"/>
<path class="st1" d="M305.54,120.75c-1.12-0.34-5.14-1.83-7.01-3.16c-0.27-0.19-0.8-1.34-0.53-2.1c0.18-0.5,3.95-1.37,6.18-1.41
	c6.89-0.14,7.2-0.17,16.79,0.53c3.72,0.27,8.69,0.39,12.8,1.23c0.51,0.1,1.87,0.39,3.68,0.35c2.37-0.05,4.05-0.63,5.44-1.05
	c2.63-0.8,5.38-1.16,8.07-1.75c8.64-1.9,10.54-2.17,13.15-1.75c2.54,0.4,3.96,1.17,4.38,1.4c2.62,1.48,3.89,3.6,5.08,5.61
	c1.29,2.17,3.02,5.06,1.93,6.66c-0.56,0.82-1.65,0.99-2.1,1.05c-16.65,2.3-23.14,1.75-23.14,1.75c-11.93,0.31-16.21,1.55-22.62,0.18
	C316.12,125.81,313.97,123.32,305.54,120.75z"/>
<ellipse class="st2" cx="419.9" cy="139.36" rx="2.81" ry="1.3"/>
<path class="st2" d="M419.75,139.71v-24.56v-6.3c-4.61,5.32-4.61,5.32-4.61,5.32l4.61,2.03"/>
</svg>
