<?xml version="1.0" encoding="utf-8"?>
<!-- Generator: Adobe Illustrator 23.0.1, SVG Export Plug-In . SVG Version: 6.00 Build 0)  -->
<svg version="1.1" id="Layer_1" xmlns="http://www.w3.org/2000/svg" xmlns:xlink="http://www.w3.org/1999/xlink" x="0px" y="0px"
	 viewBox="0 0 288 560" style="enable-background:new 0 0 288 560;" xml:space="preserve">
<style type="text/css">
	.st0{fill:none;stroke:#FFFFFF;stroke-miterlimit:10;}
	.st1{fill:#FFFFFF;stroke:#FFFFFF;stroke-miterlimit:10;}
</style>
<line class="st0" x1="44.47" y1="122.11" x2="146.82" y2="142.83"/>
<line class="st0" x1="44.47" y1="160.17" x2="146.82" y2="180.89"/>
<line class="st0" x1="44.47" y1="122.11" x2="44.47" y2="160.17"/>
<line class="st0" x1="146.82" y1="142.83" x2="146.82" y2="180.89"/>
<line class="st0" x1="180.91" y1="130.71" x2="180.91" y2="168.77"/>
<line class="st0" x1="146.82" y1="142.83" x2="180.91" y2="130.71"/>
<line class="st0" x1="146.82" y1="180.89" x2="180.91" y2="168.77"/>
<line class="st0" x1="44.47" y1="122.11" x2="78.57" y2="110.21"/>
<g>
	<ellipse class="st1" cx="144.46" cy="132.32" rx="6.86" ry="1.61"/>
	<g>
		<path class="st1" d="M137.59,137.29c0,0.9,3.07,1.63,6.86,1.63"/>
		<path class="st1" d="M151.32,137.29c0,0.9-3.07,1.63-6.86,1.63"/>
	</g>
	<line class="st1" x1="137.59" y1="137.29" x2="137.59" y2="132.32"/>
	<line class="st1" x1="151.32" y1="137.29" x2="151.32" y2="132.32"/>
</g>
<g>
	<ellipse class="st1" cx="160.2" cy="127.11" rx="6.46" ry="1.51"/>
	<g>
		<path class="st1" d="M153.73,131.79c0,0.85,2.89,1.53,6.46,1.53"/>
		<path class="st1" d="M166.66,131.79c0,0.85-2.89,1.53-6.46,1.53"/>
	</g>
	<line class="st1" x1="153.73" y1="131.79" x2="153.73" y2="127.11"/>
	<line class="st1" x1="166.66" y1="131.79" x2="166.66" y2="127.11"/>
</g>
<line class="st0" x1="79.15" y1="90.52" x2="117.96" y2="98.38"/>
<line class="st0" x1="79.24" y1="128.6" x2="117.96" y2="136.44"/>
<line class="st0" x1="117.96" y1="98.38" x2="117.96" y2="136.44"/>
<line class="st0" x1="152.06" y1="86.26" x2="152.06" y2="124.31"/>
<line class="st0" x1="113.05" y1="78.62" x2="152.06" y2="86.48"/>
<line class="st0" x1="117.96" y1="98.38" x2="152.06" y2="86.26"/>
<line class="st0" x1="117.96" y1="136.44" x2="152.06" y2="124.31"/>
<line class="st0" x1="78.95" y1="90.52" x2="113.05" y2="78.62"/>
<line class="st0" x1="79.39" y1="90.61" x2="79.39" y2="128.67"/>
<g>
	<ellipse class="st1" cx="116.05" cy="88.22" rx="6.86" ry="1.61"/>
	<g>
		<path class="st1" d="M109.19,93.19c0,0.9,3.07,1.63,6.86,1.63"/>
		<path class="st1" d="M122.92,93.19c0,0.9-3.07,1.63-6.86,1.63"/>
	</g>
	<line class="st1" x1="109.19" y1="93.19" x2="109.19" y2="88.22"/>
	<line class="st1" x1="122.92" y1="93.19" x2="122.92" y2="88.22"/>
</g>
<g>
	<ellipse class="st1" cx="131.91" cy="83.86" rx="6.46" ry="1.51"/>
	<g>
		<path class="st1" d="M125.45,88.54c0,0.85,2.89,1.53,6.46,1.53"/>
		<path class="st1" d="M138.38,88.54c0,0.85-2.89,1.53-6.46,1.53"/>
	</g>
	<line class="st1" x1="125.45" y1="88.54" x2="125.45" y2="83.86"/>
	<line class="st1" x1="138.38" y1="88.54" x2="138.38" y2="83.86"/>
</g>
<g>
	<ellipse class="st1" cx="98.33" cy="85.3" rx="6.86" ry="1.61"/>
	<g>
		<path class="st1" d="M91.47,90.27c0,0.9,3.07,1.63,6.86,1.63"/>
		<path class="st1" d="M105.2,90.27c0,0.9-3.07,1.63-6.86,1.63"/>
	</g>
	<line class="st1" x1="91.47" y1="90.27" x2="91.47" y2="85.3"/>
	<line class="st1" x1="105.2" y1="90.27" x2="105.2" y2="85.3"/>
</g>
<g>
	<ellipse class="st1" cx="114.2" cy="80.34" rx="6.46" ry="1.51"/>
	<g>
		<path class="st1" d="M107.73,85.02c0,0.85,2.89,1.53,6.46,1.53"/>
		<path class="st1" d="M120.66,85.02c0,0.85-2.89,1.53-6.46,1.53"/>
	</g>
	<line class="st1" x1="107.73" y1="85.02" x2="107.73" y2="80.34"/>
	<line class="st1" x1="120.66" y1="85.02" x2="120.66" y2="80.34"/>
</g>
<g>
	<ellipse class="st1" cx="69.73" cy="117.88" rx="6.86" ry="1.61"/>
	<g>
		<path class="st1" d="M62.87,122.85c0,0.9,3.07,1.63,6.86,1.63"/>
		<path class="st1" d="M76.6,122.85c0,0.9-3.07,1.63-6.86,1.63"/>
	</g>
	<line class="st1" x1="62.87" y1="122.85" x2="62.87" y2="117.88"/>
	<line class="st1" x1="76.6" y1="122.85" x2="76.6" y2="117.88"/>
</g>
<line class="st0" x1="180.91" y1="130.71" x2="166.66" y2="127.11"/>
<line class="st0" x1="152.06" y1="124.31" x2="157.87" y2="125.6"/>
</svg>
