<?xml version="1.0" encoding="utf-8"?>
<!-- Generator: Adobe Illustrator 23.0.1, SVG Export Plug-In . SVG Version: 6.00 Build 0)  -->
<svg version="1.1" id="Layer_1" xmlns="http://www.w3.org/2000/svg" xmlns:xlink="http://www.w3.org/1999/xlink" x="0px" y="0px"
	 viewBox="0 0 560 288" style="enable-background:new 0 0 560 288;" xml:space="preserve">
<style type="text/css">
	.st0{fill:#FFFFFF;stroke:#FFFFFF;stroke-miterlimit:10;}
	.st1{fill:#FFFFFF;}
	.st2{fill:none;stroke:#FFFFFF;stroke-width:3;stroke-miterlimit:10;}
	.st3{fill:none;stroke:#FFFFFF;stroke-width:4;stroke-miterlimit:10;}
</style>
<circle class="st0" cx="351.65" cy="128.23" r="15.1"/>
<ellipse class="st0" cx="351.82" cy="147.07" rx="6.16" ry="5.81"/>
<path class="st0" d="M345.95,148.84c0,1.48-5.17,2.68-10.9,2.68c-0.22,0.5-0.27,1.11-0.64,1.71c-0.44,0.7-0.6,1.24-1.01,1.71
	c8.24,0,14.91-1.38,14.91-3.09"/>
<g>
	<path class="st1" d="M336.39,153.21c-0.39,0.05-0.77,0.22-1.08,0.47c0.36-0.26,0.79-0.43,1.23-0.47c0.33-0.03,0.66,0,0.99-0.01
		c0.5-0.01,0.99-0.1,1.48-0.17c0.83-0.11,1.68-0.14,2.51-0.08c0.4,0.03,0.86,0.04,1.11-0.27c-0.25,0.04-0.5,0.05-0.75,0.02"/>
	<g>
		<path class="st1" d="M335.99,151.77c-0.53,0.12-0.99,0.31-1.44,0.62c-1.56,1.09-0.16,3.6,1.51,2.59c0.63-0.38,1.26-0.25,1.97-0.31
			c0.67-0.05,1.32-0.19,1.99-0.23c1.17-0.06,2.35,0.24,3.38-0.46c1.1-0.75,0.85-2.96-0.76-2.8c-0.25,0.04-0.5,0.05-0.75,0.02
			c-1.93-0.09-1.93,2.91,0,3c0.25,0.03,0.5,0.02,0.75-0.02c-0.25-0.93-0.5-1.86-0.76-2.8c-0.37,0.26-1.42,0.03-1.86,0.05
			c-0.67,0.03-1.32,0.16-1.99,0.23c-1.29,0.12-2.33,0.02-3.48,0.72c0.5,0.86,1.01,1.73,1.51,2.59c0.2-0.2,0.44-0.3,0.72-0.32
			C338.67,154.24,337.88,151.34,335.99,151.77L335.99,151.77z"/>
	</g>
</g>
<g>
	<path class="st1" d="M341.93,152.66c0.99-0.06,2.07,0.19,2.94-0.31c0.22-0.13,0.41-0.3,0.64-0.42c0.31-0.17,0.67-0.25,1.02-0.32
		c-0.15-0.23-0.35-0.44-0.57-0.6c-0.04-0.03-0.08-0.05-0.13-0.06c-0.06-0.01-0.12,0.03-0.17,0.07c-0.72,0.46-1.57,0.72-2.43,0.73"/>
	<g>
		<path class="st1" d="M341.93,154.16c0.93-0.03,1.88,0.1,2.79-0.14c0.81-0.21,1.38-0.79,2.19-0.96c0.88-0.19,1.46-1.44,0.9-2.2
			c-0.52-0.7-1.21-1.51-2.19-1.38c-0.86,0.12-1.49,0.73-2.4,0.77c-1.92,0.1-1.93,3.1,0,3c0.56-0.03,1.13-0.09,1.66-0.25
			c0.47-0.14,0.89-0.43,1.34-0.6c-0.39-0.05-0.77-0.1-1.16-0.15c0.07-0.01,0.13,0.04,0.16,0.12c0.3-0.73,0.6-1.47,0.9-2.2
			c-0.39,0.08-0.77,0.19-1.13,0.36c-0.31,0.15-0.57,0.4-0.88,0.54c-0.63,0.28-1.5,0.08-2.18,0.1
			C340.01,151.22,340,154.22,341.93,154.16L341.93,154.16z"/>
	</g>
</g>
<g>
	<path class="st1" d="M308.65,188.46c0.89,1.56,2.38,2.95,4.17,3.06c1.3,0.08,2.59-0.55,3.45-1.53c0.86-0.98,1.32-2.27,1.43-3.56
		c0.11-1.33-0.12-2.66-0.06-3.99"/>
	<g>
		<path class="st1" d="M307.36,189.22c1.77,2.88,5.06,4.9,8.36,3.1c3.81-2.08,3.38-6.21,3.42-9.88c0.02-1.93-2.98-1.93-3,0
			c-0.02,2.11,0.6,4.73-0.93,6.49c-1.82,2.11-4.09,0.69-5.27-1.22C308.94,186.06,306.34,187.57,307.36,189.22L307.36,189.22z"/>
	</g>
</g>
<g>
	<path class="st1" d="M312.9,189.1c0.41-0.43,0.82-0.87,1.22-1.3c0.22-0.23,0.45-0.49,0.48-0.81c0.02-0.25-0.09-0.5-0.2-0.72
		c-0.42-0.88-1-1.83-1.96-2c-0.12-0.02-0.25-0.03-0.38,0c-0.17,0.04-0.32,0.14-0.44,0.26c-0.44,0.43-0.58,1.11-0.44,1.71
		c0.14,0.6,0.53,1.12,1,1.51c0.23,0.19,0.5,0.35,0.79,0.36c0.31,0,0.6-0.18,0.84-0.37c1.22-0.99,1.87-2.53,2.15-4.08
		c0.15-0.82,0.19-1.68-0.02-2.49c-0.22-0.81-0.73-1.56-1.48-1.93c-0.14-0.07-0.31-0.13-0.46-0.09c-0.22,0.05-0.36,0.26-0.46,0.45
		c-0.48,0.91-0.71,1.94-0.88,2.96c-0.29,1.66-0.45,3.35-0.5,5.04c-0.01,0.35,0.07,0.8,0.42,0.85c0.24,0.03,0.43-0.17,0.57-0.36
		c0.66-0.91,0.97-2.02,1.21-3.12c0.37-1.7,0.62-3.42,0.82-5.15c0.21-1.85,0.37-3.7,0.47-5.56c0.02-0.35,0.03-0.74-0.18-1.02
		c-0.32,1.41-0.45,2.85-0.59,4.28c-0.34,3.63-0.68,7.27-1.02,10.9c-0.17,0.06-0.31-0.15-0.37-0.32c-1.76-4.86-1.52-10.2-1.1-15.36
		c-1.1,5.36-2.2,10.85-1.44,16.27c1.4-0.67,3.04-0.45,4.59-0.42c0.13,0,0.29-0.01,0.36-0.12c0.05-0.07,0.04-0.17,0.03-0.25
		c-0.08-0.67-0.19-1.34-0.26-2.02c-0.46-4.54,0.93-9.06,1.14-13.62c0.02-0.41,0.03-0.83-0.07-1.23c-0.15-0.63-0.54-1.18-0.87-1.74
		c-0.76-1.29-1.22-2.75-1.34-4.23c-0.38,0.67-0.49,1.47-0.57,2.24c-0.39,3.84-0.27,7.72,0.08,11.57c-0.07-4.58-0.15-9.16-0.22-13.74
		c-0.64,1.01-0.93,2.21-1.18,3.38c-0.69,3.24-1.13,6.53-1.58,9.81c-0.18-0.88-0.3-1.78-0.35-2.68c-0.39,0.37-0.6,0.9-0.74,1.42
		c-0.27,0.98-0.32,2.01-0.37,3.03c-0.08,1.68-0.13,3.36-0.17,5.04c-0.01,0.44,0,0.93,0.29,1.26c-0.09-3.26-0.55-6.51-0.51-9.78
		c0.04-3.26,0.63-6.63,2.44-9.34"/>
	<g>
		<path class="st1" d="M313.96,190.16c1.71-1.82,2.87-3.22,1.26-5.53c-0.87-1.24-2.37-2.32-3.91-1.66
			c-3.62,1.54-0.76,7.77,2.85,6.24c3.48-1.47,5.45-10.71,0.48-11.48c-3.99-0.61-5.29,9.78-3.11,11.76c0.48,0.44,1.24,0.6,1.82,0.23
			c2.04-1.28,2.41-3.86,2.81-6.08c0.62-3.45,1.4-7.37,0.77-10.83c-0.26-1.44-2.63-1.43-2.89,0c-0.95,5.12-1.18,10.4-1.66,15.59
			c0.85-0.35,1.71-0.71,2.56-1.06c-1.54-1.33-1.27-5.93-1.32-7.69c-0.07-2.31,0.12-4.62,0.3-6.92c0.13-1.68-2.61-2.06-2.95-0.4
			c-1.13,5.55-2.08,10.99-1.5,16.67c0.1,0.95,0.88,1.73,1.9,1.45c1.69-0.48,3.38-0.01,4.95-0.54c0.69-0.23,1.03-0.75,1.1-1.45
			c0.16-1.55-0.33-3.24-0.3-4.82c0.05-2.57,0.56-5.11,0.88-7.66c0.2-1.58,0.6-3.46,0.21-5.05c-0.52-2.09-1.86-3.74-2.21-5.97
			c-0.25-1.61-2.44-1.23-2.89,0c-1.59,4.32-0.91,9.72-0.54,14.21c0.15,1.9,3.03,1.96,3,0c-0.07-4.58-0.15-9.16-0.22-13.74
			c-0.02-1.42-2.1-2.13-2.8-0.76c-2.06,4.09-2.3,9.08-2.91,13.55c0.96,0,1.93,0,2.89,0c-0.1-0.76-0.2-1.52-0.3-2.28
			c-0.14-1.51-1.91-2-2.8-0.76c-1.96,2.76-2.3,9.22-0.99,12.26c0.6,1.39,2.86,0.65,2.8-0.76c-0.27-6.22-1.59-12.7,1.73-18.37
			c0.98-1.67-1.61-3.18-2.59-1.51c-3.64,6.22-2.43,13.01-2.14,19.88c0.93-0.25,1.86-0.5,2.8-0.76c-0.79-1.85,0-7.83,0.99-9.23
			c-0.93-0.25-1.86-0.5-2.8-0.76c0.1,1.12,0.22,1.97,0.4,3.08c0.24,1.41,2.69,1.45,2.89,0c0.56-4.14,0.7-9.05,2.61-12.83
			c-0.93-0.25-1.86-0.5-2.8-0.76c0.07,4.58,0.15,9.16,0.22,13.74c1,0,2,0,3,0c-0.34-4.2-1.04-9.39,0.44-13.41c-0.96,0-1.93,0-2.89,0
			c0.28,1.77,0.88,2.97,1.49,4.59c1.12,2.98,0.38,5.54-0.03,8.63c-0.42,3.19,0.18,6.38-0.14,9.47c0.37-0.48,0.73-0.96,1.1-1.45
			c-1.43,0.48-3.38,0.1-4.95,0.54c0.63,0.48,1.27,0.96,1.9,1.45c-0.56-5.41,0.32-10.58,1.39-15.87c-0.98-0.13-1.96-0.27-2.95-0.4
			c-0.31,4.07-1.69,13.63,1.91,16.73c1.03,0.89,2.44,0.26,2.56-1.06c0.46-4.91,0.66-9.94,1.55-14.79c-0.96,0-1.93,0-2.89,0
			c0.4,2.25,0.15,12.04-2.2,13.52c0.61,0.08,1.21,0.16,1.82,0.23c-0.34-0.31,0.72-5.95,0.79-5.95c2.1,0.09-3.95,8.05-2.6,6.61
			C310.52,189.45,312.64,191.58,313.96,190.16L313.96,190.16z"/>
	</g>
</g>
<g>
	<path class="st1" d="M311.04,167.26c-0.21-0.87-0.04-1.79,0.3-2.61s0.87-1.56,1.39-2.28c0.48-0.67,0.97-1.34,1.46-2
		c0.93-1.25,1.89-2.51,3.07-3.52s2.64-1.78,4.19-1.91c0.22-0.02,0.5,0.01,0.59,0.21c0.05,0.1,0.03,0.23,0.02,0.34
		c-0.35,2.07-1.68,3.95-3.52,4.96"/>
	<g>
		<path class="st1" d="M312.49,166.86c-0.3-2.21,2.21-4.74,3.47-6.37c0.71-0.92,1.47-1.85,2.37-2.59c0.33-0.27,2.45-1.85,2.97-1.47
			c-0.25-0.43-0.5-0.86-0.74-1.3c0.07,1.65-1.5,3.22-2.76,4.01c-1.63,1.02-0.13,3.62,1.51,2.59c2.03-1.27,4.26-3.67,4.26-6.26
			c0-2.5-2.74-2.15-4.38-1.52c-2.75,1.06-4.58,3.35-6.29,5.64c-1.87,2.51-3.75,4.78-3.31,8.05
			C309.86,169.56,312.75,168.75,312.49,166.86L312.49,166.86z"/>
	</g>
</g>
<path class="st0" d="M325.18,142.05c0.04-1.88-0.46-3.9-1.42-5.59c0.34-1.57,0.66-3.14,0.95-4.72c0.35-1.87-2.37-2.69-2.89-0.8
	c-0.24,0.88-0.48,1.75-0.72,2.63c-0.65-0.41-1.37-0.68-2.15-0.79c-0.09-0.35-0.18-0.69-0.28-1.04c-0.54-1.85-3.12-1.1-2.9,0.7
	c-0.51-0.5-1.35-0.61-2.08-0.03c-0.43,0.34-0.86,0.68-1.3,1.02c-2.79-0.7-5.74-0.9-8.56-0.8c-8.94,0.35-17.3,4.04-23.74,10.09
	c-0.88-0.07-1.86,0.62-1.71,1.71c-0.23,0.25-0.47,0.49-0.7,0.75c-1.04,1.17,0.16,2.8,1.34,2.58c0.52,2.57,1.33,5.21,3.65,6.22
	c1.97,0.86,4.81,0.77,7.61,0.37c1.93,0.35,3.86,0.41,5.49,0.21c2.78-0.33,5.89-1.34,8.56-2.97c2.23-0.14,4.46-0.3,6.65-0.75
	c1.58-0.33,2.94-1.03,4.22-1.85c-0.32,3.22-0.63,6.45-0.95,9.67c-0.02,0.23,0.01,0.43,0.08,0.61c-0.98,2.61-1.42,5.31-0.83,7.96
	c0.24,1.07,1.77,1.48,2.51,0.66c5.76-6.39,8.75-14.39,8.44-22.89c0.06-0.01,0.12-0.02,0.18-0.02
	C326.28,144.78,326.54,142.45,325.18,142.05z M319.57,156.55c-0.58,1.52-1.29,2.99-2.14,4.41
	C318.1,159.47,318.81,157.99,319.57,156.55z M321.41,147.81c-0.05,0.05-0.1,0.1-0.15,0.16c-0.17,0.23-0.35,0.46-0.53,0.7
	c0.25-0.9,0.49-1.79,0.72-2.69C321.46,146.6,321.45,147.21,321.41,147.81z"/>
<rect x="263.35" y="143.34" class="st0" width="60.76" height="7.61"/>
<polyline class="st0" points="331.86,135.47 331.86,145.99 270.54,145.99 "/>
<rect x="244.93" y="145.99" class="st0" width="86.93" height="7.7"/>
<rect x="229.09" y="123.69" class="st0" width="1.47" height="22.3"/>
<rect x="224.31" y="131.79" class="st0" width="10.68" height="3.68"/>
<ellipse class="st0" cx="262.43" cy="174.7" rx="4.97" ry="6.08"/>
<ellipse class="st0" cx="270.54" cy="168.35" rx="4.97" ry="6.08"/>
<ellipse class="st0" cx="277.28" cy="162.27" rx="4.97" ry="6.08"/>
<ellipse class="st0" cx="283.42" cy="158.76" rx="4.97" ry="6.08"/>
<ellipse transform="matrix(0.7494 -0.6622 0.6622 0.7494 -28.5272 234.4877)" class="st0" cx="295.49" cy="154.93" rx="10.29" ry="4.97"/>
<ellipse class="st0" cx="253.65" cy="180.78" rx="4.97" ry="6.08"/>
<ellipse class="st0" cx="242.43" cy="187.7" rx="4.97" ry="6.08"/>
<ellipse class="st0" cx="232.48" cy="192.93" rx="4.97" ry="6.08"/>
<ellipse transform="matrix(0.9179 -0.3969 0.3969 0.9179 -42.365 109.4887)" class="st0" cx="243.37" cy="157.11" rx="6.08" ry="4.97"/>
<ellipse class="st0" cx="237.46" cy="150.12" rx="4.97" ry="6.08"/>
<ellipse class="st0" cx="233.4" cy="143.34" rx="4.97" ry="6.08"/>
<path class="st0" d="M263.35,150.12l3.18,7.37c10.82-2.95,18.57-8.47,17.57-12.52c-1.05-4.22-11.27-5.38-22.65-2.56
	c-11.38,2.82-19.88,8.62-18.84,12.84c1.05,4.22,11.27,5.38,22.65,2.56L263.35,150.12z"/>
<ellipse class="st0" cx="310.95" cy="131.79" rx="4.97" ry="6.08"/>
<ellipse class="st0" cx="297.78" cy="135.52" rx="4.97" ry="6.08"/>
<g>
	<path class="st1" d="M282.05,155.37c-0.87,0.06-1.73,0.13-2.6,0.19c0.73-1.68,1.12-3.51,1.15-5.34c-2.53,1.79-4.68,4.14-6.23,6.83
		c-1.19,2.05-2.13,4.41-4.12,5.7c-0.56-1.05,0.52-2.21,1.48-2.91c3.17-2.29,6.42-4.47,9.75-6.53c-4.03,3.02-8.06,6.03-12.08,9.05
		c-0.17-2.94,1.26-5.92,3.65-7.63c-0.15,1.05-0.5,2.08-1.02,3c1.73-1.56,3.46-3.13,5.2-4.69c1.24,3.68,0.71,7.69,0.15,11.53
		c-0.37,2.57-1.09,5.59-3.51,6.54c2.26-1.38,4.53-2.76,6.79-4.14c2.74-1.67,5.49-3.35,8.23-5.02c1.62-0.99,3.24-1.98,4.86-2.97
		c5.43-3.31,10.87-6.63,15.97-10.43c-6.96,2.46-14.02,4.94-21.37,5.58c-2.53,0.22-5.17,0.2-7.51-0.8c4.08-1.49,8.6-1.74,12.81-0.69
		c-2.64,2.64-5.82,4.73-9.29,6.12c-0.3,0.12-0.63,0.24-0.93,0.14c-0.77-0.23-0.65-1.35-0.35-2.1c4.7-11.69,13.13-21.85,23.74-28.64
		c-1.79,1.42-3.82,2.55-5.96,3.33c4.41-1.61,9.07-2.57,13.76-2.84c-5.8,3.11-12.08,5.31-18.55,6.51c1.04-1.7,3.05-2.47,4.82-3.38
		c1.77-0.91,3.6-2.37,3.64-4.36c-13.45,4.88-26.98,9.58-40.56,14.1c1.87-1.67,4.15-2.87,6.59-3.45c-4.32,1-8.52,2.5-12.49,4.46"/>
	<g>
		<path class="st1" d="M282.05,153.87c-0.87,0.06-1.73,0.13-2.6,0.19c0.48,0.63,0.96,1.27,1.45,1.9c0.7-1.97,1.04-3.68,1.2-5.74
			c0.09-1.06-1.37-1.97-2.26-1.3c-1.87,1.42-3.58,2.94-5.03,4.8c-2.01,2.6-3.06,5.84-5.63,7.97c0.85,0.35,1.71,0.71,2.56,1.06
			c-0.19-2.48,8.64-6.99,10.49-8.15c-0.5-0.86-1.01-1.73-1.51-2.59c-4.03,3.02-8.06,6.03-12.08,9.05c0.75,0.43,1.5,0.86,2.26,1.3
			c0.08-2.67,1.2-4.85,3.21-6.57c-0.84-0.49-1.67-0.97-2.51-1.46c-0.29,0.88-0.58,1.76-0.87,2.65c-0.68,1.52,1.03,3.02,2.36,1.82
			c1.73-1.56,3.46-3.13,5.2-4.69c-0.84-0.22-1.67-0.44-2.51-0.66c1.08,4.03,1.77,13.74-2.67,16.37c0.5,0.86,1.01,1.73,1.51,2.59
			c12.02-7.33,24.48-14.25,35.85-22.57c1.26-0.92,0.58-3.35-1.16-2.74c-8.25,2.91-19.33,7.76-28.08,4.78c0,0.96,0,1.93,0,2.89
			c4.03-1.31,7.86-1.56,12.02-0.69c-0.22-0.84-0.44-1.67-0.66-2.51c-1.88,1.77-3.87,3.22-6.09,4.52c-1.93,1.13-2.55,2.18-0.87-1.43
			c1.44-3.09,3.15-6.06,5.08-8.87c4.5-6.53,10.25-11.99,16.87-16.34c-0.5-0.86-1.01-1.73-1.51-2.59c-1.83,1.33-3.46,2.3-5.61,3.18
			c-1.74,0.71-1.07,3.54,0.8,2.89c4.39-1.51,8.72-2.43,13.36-2.78c-0.25-0.93-0.5-1.86-0.76-2.8c-5.8,3-11.8,5.08-18.2,6.36
			c0.49,0.84,0.97,1.67,1.46,2.51c2.83-3.34,7.88-3.58,8.84-8.4c0.2-1.03-0.69-2.26-1.85-1.85c-13.46,4.87-26.98,9.58-40.56,14.1
			c0.49,0.84,0.97,1.67,1.46,2.51c1.84-1.49,3.69-2.41,5.93-3.06c1.85-0.54,1.08-3.36-0.8-2.89c-4.46,1.1-8.71,2.64-12.85,4.61
			c-1.74,0.83-0.22,3.42,1.51,2.59c3.93-1.87,7.91-3.26,12.13-4.3c-0.27-0.96-0.53-1.93-0.8-2.89c-2.8,0.82-4.99,2.01-7.25,3.83
			c-1.17,0.95,0.09,2.96,1.46,2.51c13.58-4.53,27.1-9.23,40.56-14.1c-0.62-0.62-1.23-1.23-1.85-1.85c-0.7,3.51-5.93,4.55-8.07,7.08
			c-0.98,1.16-0.05,2.81,1.46,2.51c6.64-1.33,12.9-3.55,18.91-6.67c1.29-0.67,0.73-2.91-0.76-2.8c-4.87,0.37-9.53,1.3-14.15,2.89
			c0.27,0.96,0.53,1.93,0.8,2.89c2.29-0.94,4.31-2.02,6.32-3.48c1.53-1.11,0.12-3.67-1.51-2.59c-9.91,6.53-17.98,15.5-23.02,26.29
			c-0.84,1.8-3.26,6.17-0.01,7.19c3.57,1.13,9.38-4.49,11.68-6.65c0.79-0.74,0.44-2.28-0.66-2.51c-4.67-0.97-9.07-0.78-13.61,0.69
			c-1.44,0.47-1.41,2.41,0,2.89c9.42,3.2,20.85-1.67,29.68-4.78c-0.39-0.91-0.77-1.83-1.16-2.74
			c-11.38,8.32-23.83,15.23-35.85,22.57c-1.65,1-0.15,3.58,1.51,2.59c5.8-3.43,5.56-14.11,4.05-19.75c-0.31-1.13-1.69-1.4-2.51-0.66
			c-1.73,1.56-3.46,3.13-5.2,4.69c0.79,0.61,1.57,1.21,2.36,1.82c0.69-1.54,0.78-1.72,1.17-3.36c0.36-1.51-1.38-2.42-2.51-1.46
			c-2.73,2.34-3.98,5.11-4.09,8.69c-0.03,1.05,1.33,1.99,2.26,1.3c4.03-3.02,8.06-6.03,12.08-9.05c1.5-1.13,0.17-3.64-1.51-2.59
			c-3.36,2.1-12.35,5.85-11.98,10.74c0.1,1.35,1.54,1.9,2.56,1.06c4.17-3.45,5.57-8.88,10.05-12.3c-0.75-0.43-1.5-0.86-2.26-1.3
			c-0.04,1.73-0.41,3.38-1.1,4.94c-0.31,0.88,0.52,1.97,1.45,1.9c0.87-0.06,1.73-0.13,2.6-0.19
			C283.97,156.73,283.98,153.73,282.05,153.87L282.05,153.87z"/>
	</g>
</g>
<path class="st0" d="M322.9,119.82c0.98-0.12,2.94-0.3,4.73,0.78c1.46,0.88,2.19,2.22,2.78,3.46c1.77,3.76,1.85,5.92,2.97,10.09
	c1.46,5.42,2.39,5.76,2.78,9.56c0.19,1.86,0.4,3.96-0.24,6.44c-0.98,3.73-3.32,6.05-6.63,9.26c-5.49,5.32-7.32,4.84-8.73,8.05
	c-0.6,1.37-0.59,4.12-0.54,9.56c0.07,7.17,0.5,8.58-0.63,10.97c-0.32,0.67-2.38,4.99-6.1,5.12c-2.57,0.09-4.8-1.88-5.8-3.8
	c-0.89-1.71-0.59-2.94-0.24-7.07c0.74-8.76,1.1-13.13,0.54-16.09c-0.24-1.26-0.62-2.68,0-4.29c0.72-1.87,2.66-3.69,3.46-4.44
	c0.87-0.81,1.57-1.32,1.46-1.51c-0.16-0.28-1.96,0.45-2.68,0.73c-4.52,1.79-3.44,0.78-12.73,4c-4.05,1.4-6.08,2.11-7.22,2.63
	c-4.88,2.25-6.87,4.5-12.04,8.73c-9.96,8.15-9.97,5.85-15.7,11.36c-1.69,1.63-5.13,5.14-10.83,8c-0.64,0.32-1.06,0.51-2.1,0.98
	c-7.28,3.27-15.07,5.58-21.85,9.8c-1.29,0.8-6.95,3.47-8.96,3.59c-0.32,0.02-0.86-0.1-0.94,0.46c-0.12,0.87-0.02,1.2-0.1,1.64
	c-0.3,1.75-0.39,5.44-3.8,13.87c-3.16,7.8-2.57,5.35-6.58,14.73c-1.14,2.65-2.69,6.37-6.05,8.83c-1.66,1.22-3.02,1.58-3.95,1.71
	c-2.09,0.29-3.73-0.37-4.73-0.78c-1.39-0.58-3.18-1.31-4.05-3.17c-0.14-0.31-0.59-1.35-0.44-2.68c0.18-1.55,1.07-2.61,1.46-3.07
	c2.71-3.14,8-7.51,10.34-9.9c0.68-0.69,5.09-5.28,6.83-11.95c2.13-8.15,2.49-10,2.49-10c0.15-0.75,0.37-1.96,1.07-3.41
	c0.44-0.92,1.43-2.67,3.71-4.58c2.52-2.12,4.96-3.03,6.14-3.51c2.89-1.16,1.29-0.91,14.63-9.02c3.15-1.92,6.19-4.04,9.46-5.75
	c0.7-0.37,2.2-1.14,4-2.49c1.91-1.43,3.07-2.69,3.95-3.61c3.43-3.57,11.7-11.36,13.46-12.92c0.2-0.18,0.85-0.75,0.73-0.98
	c-0.11-0.2-0.78-0.03-1.07,0.05c-0.68,0.18-14.38,3.79-21.55,4.44c-0.66,0.06-1.57,0.12-2.73-0.05c-3.38-0.5-5.66-2.53-6.44-3.22
	c-4.67-4.15-5.73-12.44-9.61-23.45c-2.86-8.11-3.82-9.22-4.34-10.85c-0.06-0.19,0.01-0.41-0.49-0.7c-0.78-0.45-1.39,0.05-1.7,0.26
	c-2.32,1.54-10.38,2.84-25.02,4.52c0,0-9.73,1.12-14.53-1.07c-0.43-0.2-1.54-0.7-2.39-1.85c-0.85-1.15-0.99-2.32-1.17-3.8
	c-0.25-2.06-0.42-3.47,0.44-4.83c0.89-1.42,2.36-1.93,2.58-2c2.72-0.89,5.6,1.02,6.58,1.61c7.99,4.81,21.45,1.74,23.02,1.37
	c10.48-2.5,15.72-3.75,15.99-3.85c0.3-0.11,1.34-0.53,2.39-0.15c1.07,0.39,1.6,1.41,1.8,1.8c11.05,21.15,13.59,21.92,14.77,26.33
	c0.1,0.37,0.37,1.43,1.22,1.85c1.28,0.64,3.06-0.56,3.56-0.88c4.12-2.66,9.3-3.17,13.7-5.32c2.76-1.34,8.67-3.28,20.48-7.17
	c16.26-5.35,13.33-3.57,18.87-5.85C300.61,126.31,313.58,120.97,322.9,119.82z"/>
<path class="st0" d="M347.88,125.36"/>
<rect x="250.98" y="127.98" transform="matrix(0.3379 0.9412 -0.9412 0.3379 295.0357 -159.1492)" class="st0" width="19.31" height="4.27"/>
<rect x="292.27" y="111.16" transform="matrix(0.3379 0.9412 -0.9412 0.3379 309.5794 -208.3338)" class="st0" width="21.18" height="9.41"/>
<rect x="259.36" y="113.73" transform="matrix(0.9412 -0.3379 0.3379 0.9412 -22.7995 100.7255)" class="st0" width="37.19" height="4.27"/>
<path class="st0" d="M304.05,103.52c0.78-1.42,4.92-1.35,7.95,0.35c2.87,1.6,2.73,3.52,5.15,4.07c2.14,0.49,2.73-0.91,5.57-0.42
	c0.82,0.14,3.17,0.54,4.3,2.46c0.7,1.19,0.62,2.42,0.58,2.88c-0.26,3.08-3.01,5.12-4.3,6.07c-5.56,4.11-12.55,3.71-12.68,3.11
	c-0.09-0.42,3.23-0.58,5.42-3.42c0.3-0.39,2.56-3.32,1.61-5.57c-1.43-3.38-8.4-1.18-12.33-6.03
	C305.06,106.7,303.42,104.68,304.05,103.52z"/>
<circle class="st2" cx="324.4" cy="99.03" r="3.57"/>
<circle class="st3" cx="307.33" cy="82.39" r="6.42"/>
<circle class="st3" cx="283.44" cy="76.38" r="5.63"/>
<circle class="st2" cx="294.96" cy="59.07" r="3.68"/>
</svg>
